# xmcd CD database file
#
# Track frame offsets:
#	150
#	14702
#	27328
#	38032
#	48652
#	61014
#	72136
#	82443
#	90862
#	99375
#
# Disc length: 1467 seconds
#
# Revision: 0
# Processed by: cddbd v1.5.2PL0 Copyright (c) Steve Scherf et al.
# Submitted via: CDex 2.16
#
DISCID=7c05b90a
DTITLE=Various Artist - Country Music 22 Hits - Disc 2
DYEAR=2015
DGENRE=Country
TTITLE0=Loretta Lynn - Coal Miner's Daughter
TTITLE1=Lynn Anderson - Rose Garden
TTITLE2=Patsy Cline - Honly Tonk Merry-Go-Round
TTITLE3=Waylon Jennings - Sally Was A Good Old Girl
TTITLE4=Johnny Cash - I Walk the Line
TTITLE5=Elvis Presley - Mystery Train
TTITLE6=Buck Owens - Excuse Me (I Think I've Got a Heartache)
TTITLE7=Johnny Cash - Country Boy
TTITLE8=Waylon Jennings - Abilene
TTITLE9=Charley Pride - Oklahoma Morning
EXTD=YEAR: 2015
EXTT0=
EXTT1=
EXTT2=
EXTT3=
EXTT4=
EXTT5=
EXTT6=
EXTT7=
EXTT8=
EXTT9=
PLAYORDER=
